<svg width="242" height="230" viewBox="0 0 242 230" fill="none" xmlns="http://www.w3.org/2000/svg">
<path d="M175.587 93.1139L130.83 113.837L143.629 131.615L188.387 110.892L175.587 93.1139Z" fill="#F7DC64"/>
<path d="M194.017 106.397L137.149 134.995L148.38 149.358L205.248 120.761L194.017 106.397Z" fill="#3CC13B"/>
<path d="M196.24 127.413L159.11 146.084L166.443 155.461L203.572 136.79L196.24 127.413Z" fill="#3CC13B"/>
<path d="M125.073 122.82C161.486 122.82 191.004 99.1481 191.004 69.9469C191.004 40.7458 161.486 17.0736 125.073 17.0736C88.6604 17.0736 59.1421 40.7458 59.1421 69.9469C59.1421 99.1481 88.6604 122.82 125.073 122.82Z" fill="#F7DC64"/>
<path d="M31.8294 114.056L1 38.6783C1 38.6783 40.028 5.62736 62.6893 43.1313L76.2407 45.6797L66.6395 56.5853L81.1293 87.3785" stroke="#18181B" stroke-width="1.01635" stroke-miterlimit="10"/>
<path d="M28.2281 134.302C30.5313 134.302 32.3985 132.804 32.3985 130.957C32.3985 129.11 30.5313 127.613 28.2281 127.613C25.9248 127.613 24.0576 129.11 24.0576 130.957C24.0576 132.804 25.9248 134.302 28.2281 134.302Z" fill="#494993"/>
<path d="M42.3553 77.2961C43.5154 77.2961 44.4558 76.5419 44.4558 75.6116C44.4558 74.6813 43.5154 73.9272 42.3553 73.9272C41.1953 73.9272 40.2549 74.6813 40.2549 75.6116C40.2549 76.5419 41.1953 77.2961 42.3553 77.2961Z" fill="#494993"/>
<path d="M93.3901 120.294L81.9968 109.497L87.7019 88.8483C87.8782 88.2097 87.8809 87.5482 87.7096 86.9087C87.5384 86.2693 87.1973 85.6669 86.7095 85.1427C86.2218 84.6185 85.5989 84.1848 84.8832 83.8711C84.1676 83.5574 83.3761 83.3711 82.5625 83.3249V83.3249C81.2073 83.2468 79.862 83.5611 78.7711 84.2107C77.6801 84.8602 76.9158 85.802 76.6169 86.865L69.6345 112.026L78.6123 125.659C78.6123 125.659 90.341 142.262 69.8039 160.267" stroke="#18181B" stroke-width="1.01635" stroke-miterlimit="10"/>
<path d="M82.8027 107.413L89.0906 89.878C89.3015 89.136 89.7715 88.4575 90.4457 87.9219L100.907 79.5538C101.425 79.1404 102.049 78.8224 102.736 78.6221C103.422 78.4219 104.155 78.3441 104.883 78.3943C105.611 78.4445 106.317 78.6214 106.951 78.9127C107.585 79.204 108.132 79.6027 108.554 80.0809C109.24 80.8582 109.56 81.8055 109.457 82.7541C109.354 83.7028 108.834 84.5914 107.991 85.262L98.546 92.7905C97.9362 93.2796 97.489 93.8773 96.8996 94.9477L95.0701 109.654" stroke="#18181B" stroke-width="1.01635" stroke-miterlimit="10"/>
<path d="M95.2498 110.005L99.0136 95.4531C99.2257 94.7106 99.6956 94.0315 100.369 93.4942L110.834 85.1289C111.351 84.715 111.975 84.3966 112.662 84.1961C113.349 83.9956 114.082 83.9177 114.81 83.9679C115.538 84.018 116.244 84.1951 116.878 84.4867C117.512 84.7783 118.058 85.1773 118.48 85.656V85.656C119.165 86.4337 119.484 87.3807 119.381 88.329C119.278 89.2774 118.76 90.1659 117.918 90.8371L108.462 98.3629C107.851 98.8521 107.406 99.4593 107.172 100.126L103.069 113.553" stroke="#18181B" stroke-width="1.01635" stroke-miterlimit="10"/>
<path d="M103.428 114.08L109.188 99.9387C109.401 99.1983 109.871 98.5213 110.543 97.9852L120.998 89.6199C121.513 89.2057 122.136 88.8869 122.821 88.6857C123.507 88.4846 124.239 88.4059 124.966 88.4554C125.693 88.5048 126.399 88.6811 127.032 88.9719C127.666 89.2626 128.212 89.6609 128.634 90.1388V90.1388C129.314 90.9148 129.63 91.8586 129.526 92.8033C129.421 93.748 128.904 94.6327 128.065 95.3009L118.626 102.838C118.013 103.325 117.568 103.93 117.332 104.595L112.298 116.772" stroke="#18181B" stroke-width="1.01635" stroke-miterlimit="10"/>
<path d="M112.304 116.607L119.507 104.598C119.677 104.003 120.054 103.458 120.594 103.028L129.01 96.3008C129.424 95.9677 129.925 95.7112 130.476 95.5494C131.028 95.3875 131.616 95.3242 132.201 95.3638C132.786 95.4034 133.353 95.545 133.863 95.7786C134.373 96.0122 134.812 96.3323 135.152 96.7164V96.7164C135.7 97.3416 135.954 98.102 135.871 98.8632C135.787 99.6244 135.37 100.337 134.694 100.876L127.095 106.929C126.604 107.321 126.246 107.808 126.055 108.342L121.99 119.799L112.165 138.317C112.165 138.317 118.063 216.751 96.2254 220.865C74.3874 224.978 47.2372 161.3 38.3542 192.538" stroke="#18181B" stroke-width="1.01635" stroke-miterlimit="10"/>
<path d="M115.157 121.117C115.157 121.117 116.644 114.816 89.9648 110.863" stroke="#18181B" stroke-width="1.01635" stroke-miterlimit="10"/>
<path d="M116.593 43.1448L101.348 36.3526L97.6214 15.6363C97.5059 14.9958 97.2195 14.3827 96.7818 13.8389C96.344 13.2952 95.7652 12.8335 95.0848 12.4854C94.4044 12.1373 93.6385 11.9109 92.8391 11.8217C92.0397 11.7325 91.2258 11.7826 90.4527 11.9685V11.9685C89.1649 12.2779 88.0584 12.9478 87.3346 13.8563C86.6109 14.7648 86.318 15.8516 86.5092 16.9187L90.9914 42.164L105.247 52.26C105.247 52.26 124.067 61.1062 112.918 83.5314" stroke="#18181B" stroke-width="1.01635" stroke-miterlimit="10"/>
<path d="M101.158 34.1981L99.3153 16.2069C99.1864 15.4619 99.3226 14.7028 99.7083 14.0171L105.752 3.33975C106.05 2.8117 106.489 2.34222 107.037 1.96409C107.585 1.58595 108.229 1.30829 108.924 1.15047C109.62 0.992659 110.35 0.9585 111.064 1.05038C111.777 1.14226 112.457 1.35797 113.056 1.68244V1.68244C114.029 2.20973 114.737 2.99606 115.056 3.90212C115.375 4.80818 115.283 5.77547 114.798 6.63261L109.343 16.2504C108.988 16.8726 108.842 17.5599 108.761 18.7092L113.48 32.837" stroke="#18181B" stroke-width="1.01635" stroke-miterlimit="10"/>
<path d="M113.798 33.1059L110.932 18.5842C110.802 17.8389 110.94 17.0793 111.329 16.3944L117.359 5.717C117.657 5.18863 118.095 4.7188 118.643 4.3404C119.191 3.96199 119.835 3.68414 120.531 3.52629C121.226 3.36843 121.957 3.33438 122.67 3.42652C123.384 3.51865 124.064 3.73476 124.663 4.0597V4.0597C125.641 4.58497 126.355 5.37202 126.677 6.2803C126.998 7.18857 126.906 8.15891 126.418 9.01802L120.964 18.6331C120.609 19.257 120.462 19.9441 120.537 20.6273L122.6 34.2117" stroke="#18181B" stroke-width="1.01635" stroke-miterlimit="10"/>
<path d="M123.156 34.5812L122.305 19.8855C122.177 19.1411 122.315 18.3829 122.702 17.6985L128.735 7.02108C129.033 6.49347 129.47 6.02423 130.017 5.64611C130.564 5.26798 131.207 4.99007 131.901 4.83175C132.596 4.67344 133.325 4.63855 134.038 4.7295C134.751 4.82045 135.431 5.03505 136.029 5.35835V5.35835C137 5.88589 137.706 6.67179 138.023 7.57683C138.339 8.48188 138.247 9.44765 137.761 10.3031L132.303 19.9127C131.949 20.5359 131.8 21.2218 131.873 21.9042L132.516 34.5839" stroke="#18181B" stroke-width="1.01635" stroke-miterlimit="10"/>
<path d="M132.465 34.4236L133.895 21.2929C133.794 20.6943 133.905 20.085 134.217 19.5351L139.068 10.9497C139.307 10.525 139.658 10.1472 140.097 9.84268C140.537 9.53816 141.054 9.31429 141.612 9.18672C142.171 9.05915 142.757 9.03096 143.331 9.10412C143.904 9.17728 144.451 9.35002 144.933 9.61027V9.61027C145.713 10.0348 146.28 10.667 146.535 11.395C146.79 12.1229 146.716 12.8997 146.325 13.5878L141.921 21.3201C141.639 21.8224 141.522 22.3743 141.582 22.923L142.825 34.6627L141.809 54.553C141.809 54.553 181.487 125.464 163.075 135.41C144.662 145.357 126.418 169.284 131.839 200.681" stroke="#18181B" stroke-width="1.01635" stroke-miterlimit="10"/>
<path d="M136.365 36.2929C136.365 36.2929 134.993 30.044 108.584 33.8721" stroke="#18181B" stroke-width="1.01635" stroke-miterlimit="10"/>
<path d="M172.045 155.07L199.216 141.127C199.216 141.127 203.563 163.495 172.045 155.07Z" fill="#3CC13B"/>
<path d="M141.352 222.794C141.352 222.794 216.247 179.614 212.042 179.399C207.838 179.185 198.735 181.894 198.735 181.894C198.735 181.894 221.261 171.23 208.814 172.675C196.367 174.121 189.002 177.753 189.002 177.753C189.002 177.753 210.796 165.698 198.061 167.494C185.326 169.29 177.683 174.781 177.683 174.781C177.683 174.781 201.757 156.906 186.152 160.691C170.548 164.476 167.37 168.32 167.37 168.32C167.37 168.32 182.029 150.486 172.496 154.464C162.963 158.441 139.075 182.948 139.075 182.948C139.075 182.948 -21.4548 111.14 25.3416 179.014C72.1379 246.887 90.5576 193.413 104.411 229.819" stroke="#18181B" stroke-width="1.01635" stroke-miterlimit="10"/>
<path d="M190.885 86.7971C191.973 84.1834 243.058 41.4767 232.556 83.0206C222.053 124.565 204.66 164.658 204.66 164.658" stroke="#18181B" stroke-width="1.01635" stroke-miterlimit="10"/>
<path d="M195.957 159.718C195.957 159.718 212.259 141.415 207.913 149.261C203.566 157.107 202.831 160.59 202.831 160.59C202.831 160.59 220.942 139.382 216.596 149.84C212.249 160.297 206.815 166.111 206.815 166.111C206.815 166.111 231.086 141.705 223.117 153.907C215.149 166.108 212.249 170.178 212.249 170.178C212.249 170.178 239.789 144.319 230.008 156.817C220.228 169.314 216.968 173.085 216.968 173.085C216.968 173.085 248.848 144.906 239.43 159.43C230.012 173.955 214.068 181.51 214.068 181.51" stroke="#18181B" stroke-width="1.01635" stroke-miterlimit="10"/>
<path d="M58.7459 23.1893C61.8687 23.1893 64.4002 21.1591 64.4002 18.6548C64.4002 16.1505 61.8687 14.1203 58.7459 14.1203C55.6231 14.1203 53.0916 16.1505 53.0916 18.6548C53.0916 21.1591 55.6231 23.1893 58.7459 23.1893Z" fill="#F7DC64"/>
<path d="M211.575 60.0493C216.969 60.0493 221.342 56.5424 221.342 52.2165C221.342 47.8906 216.969 44.3837 211.575 44.3837C206.181 44.3837 201.808 47.8906 201.808 52.2165C201.808 56.5424 206.181 60.0493 211.575 60.0493Z" fill="#3CC13B"/>
</svg>
